#!OML:ASF E:\Steps\Project 1\Capture day 1\Session 2\Subject.ASF
:FULLY-SPECIFIED
:DEGREES
442
root 8.36983 16.0199 14.5782 -158.856 3.2247 180.646
lowerback -22.736 -0.288703 -4.73738
upperback 1.04348 1.1058 -0.316899
thorax 13.9585 0.228308 2.74787
lowerneck -2.22874 -2.98559 -1.53453
upperneck 16.9359 -3.60609 3.97112
head 5.56571 -1.20737 1.33858
rclavicle -4.07509e-015 1.90833e-014
rhumerus -32.9096 -12.9133 -78.9379
rradius 45.9983
rwrist -7.95464
rhand -7.07954 -53.6591
rfingers 7.12502
rthumb 18.7943 -82.7712
lclavicle -4.07509e-015 1.90833e-014
lhumerus -34.4676 9.61799 75.9618
lradius 20.8796
lwrist -6.62398
lhand -20.49 -14.1538
lfingers 7.12502
lthumb 5.86671 15.745
rfemur -15.9674 6.7135 24.0799
rtibia 11.876
rfoot -24.3699 -6.34764
rtoes -37.1167
lfemur -45.5314 -10.1427 -11.4474
ltibia 16.1418
lfoot -5.38544 8.1247
ltoes -32.532
443
root 8.36939 16.0059 14.4409 -159.063 3.26956 180.578
lowerback -22.2519 -0.308801 -4.95263
upperback 0.778569 1.10977 -0.294743
thorax 13.3656 0.241676 2.88778
lowerneck -2.15402 -3.01588 -1.69423
upperneck 17.3501 -3.59335 3.95524
head 5.68481 -1.18654 1.36448
rclavicle 2.28602e-015 -2.78299e-015
rhumerus -33.4606 -12.5809 -78.7529
rradius 46.2148
rwrist -8.02881
rhand -6.96923 -53.455
rfingers 7.12502
rthumb 18.9004 -82.5567
lclavicle 2.28602e-015 -2.78299e-015
lhumerus -34.999 10.1086 75.6674
lradius 20.4681
lwrist -7.18572
lhand -20.5727 -14.1825
lfingers 7.12502
lthumb 5.78692 15.7185
rfemur -15.1978 6.87265 24.0332
rtibia 11.9717
rfoot -24.6686 -6.41187
rtoes -36.8153
lfemur -44.9507 -10.4111 -11.4495
ltibia 15.0942
lfoot -5.11125 8.02829
ltoes -34.1352
444
root 8.37196 15.9895 14.3134 -159.112 3.26922 180.4
lowerback -22.2072 -0.350236 -5.24606
upperback 0.670829 1.14919 -0.379162
thorax 13.209 0.254865 2.97212
lowerneck -2.02192 -3.04824 -1.68158
upperneck 17.4678 -3.61842 3.96087
head 5.69967 -1.18734 1.36545
rclavicle 3.08116e-015 1.78906e-014
rhumerus -33.685 -12.5342 -78.763
rradius 46.3898
rwrist -7.86917
rhand -7.27763 -53.1322
rfingers 7.12502
rthumb 18.6038 -82.2626
lclavicle 3.08116e-015 1.78906e-014
lhumerus -35.1549 10.4711 75.36
lradius 20.1168
lwrist -7.61385
lhand -20.4823 -13.7866
lfingers 7.12502
lthumb 5.87414 16.1119
rfemur -14.7925 6.93666 23.8665
rtibia 12.3095
rfoot -25.1785 -6.44119
rtoes -36.8861
lfemur -44.7433 -10.4868 -11.7077
ltibia 14.5964
lfoot -4.95834 7.86524
ltoes -34.8741
445
root 8.37052 15.9739 14.1837 -159.17 3.28267 180.262
lowerback -23.2181 -0.308149 -5.34395
upperback 1.21366 1.3242 -0.563766
thorax 14.4179 0.278174 2.89822
lowerneck -2.10899 -3.07302 -1.57046
upperneck 16.9419 -3.73747 4.15463
head 5.55493 -1.2569 1.39668
rclavicle 3.67752e-015 -1.90833e-014
rhumerus -32.815 -12.8663 -79.0826
rradius 46.3837
rwrist -7.71046
rhand -7.45655 -52.962
rfingers 7.12502
rthumb 18.4317 -82.1088
lclavicle 3.67752e-015 -1.90833e-014
lhumerus -34.2508 10.5123 75.3192
lradius 19.8251
lwrist -7.74814
lhand -20.4213 -13.3491
lfingers 7.12502
lthumb 5.93306 16.5478
rfemur -14.4226 7.05604 23.7206
rtibia 12.7354
rfoot -25.6061 -6.68403
rtoes -36.9724
lfemur -44.4903 -10.4923 -12.0519
ltibia 14.3812
lfoot -4.87168 7.84661
ltoes -34.999
446
root 8.36612 15.9568 14.0468 -159.251 3.28819 180.19
lowerback -23.2469 -0.277877 -5.40919
upperback 1.13046 1.40599 -0.664883
thorax 14.3304 0.323915 2.84876
lowerneck -2.04797 -3.04505 -1.38675
upperneck 17.253 -3.65295 3.97405
head 5.63259 -1.19546 1.31713
rclavicle -7.7526e-015 1.19271e-015
rhumerus -32.987 -12.8546 -79.1271
rradius 46.3649
rwrist -7.60312
rhand -7.17384 -52.933
rfingers 7.12502
rthumb 18.7036 -82.0538
lclavicle -7.7526e-015 1.19271e-015
lhumerus -34.4384 10.3069 75.1696
lradius 19.6277
lwrist -7.79411
lhand -20.2461 -13.2976
lfingers 7.12502
lthumb 6.10223 16.5946
rfemur -13.95 7.33701 23.6758
rtibia 13.1083
rfoot -25.6348 -7.40284
rtoes -36.7313
lfemur -44.1463 -10.4038 -12.4431
ltibia 14.3795
lfoot -4.8561 7.6911
ltoes -34.3495
447
root 8.36026 15.937 13.907 -159.277 3.19062 180.106
lowerback -23.2585 -0.313648 -5.44095
upperback 0.986841 1.3914 -0.760749
thorax 14.1704 0.333943 2.75269
lowerneck -1.97958 -3.05431 -1.26416
upperneck 17.5061 -3.62218 3.80741
head 5.69411 -1.1671 1.24869
rclavicle 1.36167e-014 -1.98785e-015
rhumerus -33.2715 -12.8016 -79.1836
rradius 46.366
rwrist -7.55859
rhand -7.15175 -53.0287
rfingers 7.12502
rthumb 18.7249 -82.1474
lclavicle 1.36167e-014 -1.98785e-015
lhumerus -34.6635 10.5754 74.8308
lradius 19.3007
lwrist -8.07871
lhand -20.0938 -13.6206
lfingers 7.12502
lthumb 6.24929 16.2672
rfemur -13.458 7.37068 23.6699
rtibia 13.3527
rfoot -26.4302 -7.96258
rtoes -39.2256
lfemur -43.8882 -10.2595 -12.9327
ltibia 14.6258
lfoot -4.64096 7.18639
ltoes -33.0846
448
root 8.35392 15.9188 13.773 -159.166 2.93481 179.957
lowerback -23.0286 -0.422791 -5.51821
upperback 0.635146 1.28594 -0.882158
thorax 13.6351 0.323117 2.61903
lowerneck -1.95388 -3.06453 -1.29695
upperneck 17.8859 -3.61318 3.93255
head 5.81139 -1.12966 1.2972
rclavicle -5.76476e-015 -3.97569e-015
rhumerus -33.9479 -12.7021 -79.2125
rradius 46.5834
rwrist -7.78434
rhand -7.47024 -52.9325
rfingers 7.12502
rthumb 18.4185 -82.0805
lclavicle -5.76476e-015 -3.97569e-015
lhumerus -35.1817 10.9676 74.3486
lradius 19.0536
lwrist -8.5618
lhand -20.1813 -13.7591
lfingers 7.12502
lthumb 6.16483 16.1312
rfemur -13.1907 7.34945 23.599
rtibia 13.6605
rfoot -26.9504 -8.38253
rtoes -40.1148
lfemur -43.8694 -9.96732 -13.6589
ltibia 15.2027
lfoot -3.85726 6.34142
ltoes -32.5925
449
root 8.34971 15.9027 13.6417 -159.09 2.64718 179.75
lowerback -23.6993 -0.569417 -5.74966
upperback 0.918282 1.22252 -0.956419
thorax 14.359 0.24981 2.65558
lowerneck -2.2516 -3.09912 -1.4199
upperneck 17.7693 -3.72285 4.18171
head 5.83583 -1.18587 1.38482
rclavicle -1.68967e-015 7.95139e-016
rhumerus -33.5158 -12.8048 -79.3986
rradius 46.6117
rwrist -7.98324
rhand -7.76655 -53.1955
rfingers 7.12502
rthumb 18.1335 -82.3703
lclavicle -1.68967e-015 7.95139e-016
lhumerus -34.643 11.7732 74.1029
lradius 18.7081
lwrist -9.36443
lhand -20.3572 -13.4023
lfingers 7.12502
lthumb 5.99496 16.4929
rfemur -12.956 7.70146 23.4811
rtibia 14.1254
rfoot -27.2318 -8.94483
rtoes -39.3547
lfemur -43.9153 -9.58112 -14.5637
ltibia 16.1781
lfoot -2.91188 5.44434
ltoes -32.547
450
root 8.34154 15.8836 13.4959 -159.059 2.63198 179.676
lowerback -23.2909 -0.567232 -5.81046
upperback 0.465749 1.24104 -1.04948
thorax 13.5905 0.306949 2.58644
lowerneck -2.20839 -1.67907 -1.54088
upperneck 18.2429 -4.28165 4.62161
head 6.0015 -2.36177 1.41508
rclavicle -4.17448e-015 -7.95139e-015
rhumerus -34.4835 -12.7193 -79.3174
rradius 46.7075
rwrist -7.95352
rhand -7.59207 -53.576
rfingers 7.12502
rthumb 18.3013 -82.7351
lclavicle -4.17448e-015 -7.95139e-015
lhumerus -35.453 11.7949 73.7595
lradius 18.7037
lwrist -9.67472
lhand -20.5462 -12.9207
lfingers 7.12502
lthumb 5.81245 16.9795
rfemur -12.6912 8.07433 23.427
rtibia 14.7241
rfoot -27.4375 -9.21562
rtoes -38.4093
lfemur -43.7832 -9.28728 -15.1629
ltibia 16.9928
lfoot -1.98555 5.05155
ltoes -32.521
